<?xml version="1.0" standalone="no"?>
<!DOCTYPE svg PUBLIC "-//W3C//DTD SVG 20010904//EN"
 "http://www.w3.org/TR/2001/REC-SVG-20010904/DTD/svg10.dtd">
<svg version="1.0" xmlns="http://www.w3.org/2000/svg"
 width="252.000000pt" height="186.000000pt" viewBox="0 0 252.000000 186.000000"
 preserveAspectRatio="xMidYMid meet">

<g transform="translate(0.000000,186.000000) scale(0.100000,-0.100000)"
fill="#000000" stroke="none">
<path d="M855 1430 c-55 -11 -147 -47 -171 -65 -13 -10 0 -8 41 6 87 31 218
31 308 0 75 -25 171 -91 212 -145 26 -34 30 -36 86 -36 33 0 59 4 59 8 0 18
-103 122 -150 152 -109 70 -274 104 -385 80z"/>
<path d="M794 1369 c-163 -27 -308 -154 -355 -311 -17 -56 -20 -88 -17 -166 3
-84 8 -106 36 -164 90 -187 289 -293 484 -260 72 13 155 45 193 76 11 9 -5 5
-38 -10 -79 -35 -191 -43 -272 -19 -83 24 -135 57 -199 125 -66 72 -97 146
-104 251 -11 175 80 324 246 402 61 29 75 32 168 32 95 0 104 -2 172 -36 85
-42 69 -16 -18 30 -58 31 -171 62 -220 60 -14 -1 -48 -5 -76 -10z"/>
<path d="M719 1049 c-30 -11 -52 -53 -44 -80 7 -22 45 -44 95 -54 40 -8 80
-31 80 -45 0 -21 -41 -50 -71 -50 -40 0 -68 16 -79 46 -5 13 -17 24 -25 24
-22 0 -11 -37 21 -70 20 -21 34 -25 80 -25 49 0 59 3 81 29 43 50 18 97 -62
116 -82 20 -109 45 -80 74 26 26 90 21 113 -9 22 -27 42 -33 42 -12 0 43 -94
78 -151 56z"/>
<path d="M920 925 c0 -127 1 -135 19 -135 17 0 20 8 23 47 2 25 8 48 13 50 6
1 23 -20 40 -47 18 -31 36 -50 48 -50 12 0 16 4 11 13 -4 6 -22 35 -40 63
l-33 51 37 36 c30 31 33 37 17 37 -10 0 -36 -17 -57 -37 l-38 -37 0 72 c0 65
-2 72 -20 72 -19 0 -20 -7 -20 -135z"/>
<path d="M1336 995 l46 -65 -26 -35 c-14 -19 -38 -51 -52 -70 -25 -33 -25 -35
-6 -35 13 0 33 19 57 55 21 30 41 55 44 55 3 -1 23 -25 44 -55 24 -35 45 -55
58 -55 16 0 11 11 -32 70 l-50 70 47 66 c36 50 43 65 29 63 -11 -2 -34 -24
-53 -49 -19 -25 -37 -46 -41 -47 -3 -1 -21 20 -40 47 -21 31 -41 50 -53 50
-16 0 -12 -10 28 -65z"/>
<path d="M1710 1053 c-50 -20 -66 -75 -31 -107 10 -9 47 -25 82 -34 70 -19 84
-39 53 -73 -25 -28 -84 -26 -112 4 -12 13 -22 29 -22 35 0 7 -7 12 -15 12 -19
0 -19 -29 0 -57 33 -47 134 -54 176 -12 24 24 25 71 2 91 -10 9 -47 25 -83 35
-67 20 -84 39 -60 68 24 29 120 13 120 -20 0 -8 9 -15 19 -15 24 0 18 30 -10
56 -19 17 -93 28 -119 17z"/>
<path d="M2120 925 c0 -113 2 -135 15 -135 13 0 15 22 15 135 0 113 -2 135
-15 135 -13 0 -15 -22 -15 -135z"/>
<path d="M1106 968 c3 -13 19 -59 34 -102 30 -85 26 -126 -12 -126 -10 0 -18
-7 -18 -15 0 -21 33 -19 53 3 9 10 32 60 51 112 19 52 39 108 45 123 10 24 9
28 -5 25 -11 -2 -26 -30 -42 -76 -14 -40 -29 -69 -33 -65 -3 5 -16 38 -29 76
-14 43 -27 67 -36 67 -11 0 -13 -6 -8 -22z"/>
<path d="M1945 979 c-34 -19 -45 -41 -45 -85 0 -57 7 -72 42 -90 38 -19 88
-12 114 17 27 30 26 111 -2 139 -24 25 -81 35 -109 19z m80 -33 c14 -10 20
-26 20 -56 0 -30 -6 -46 -20 -56 -44 -33 -95 -4 -95 54 0 61 50 91 95 58z"/>
<path d="M2240 983 c-17 -6 -40 -32 -40 -45 0 -13 20 -9 36 7 20 19 68 19 84
0 18 -21 5 -32 -46 -38 -58 -6 -89 -34 -80 -71 9 -37 47 -53 97 -39 22 6 42 6
45 2 3 -5 11 -9 17 -9 9 0 11 24 9 85 -3 73 -6 87 -25 100 -21 15 -67 19 -97
8z m90 -110 c0 -44 -72 -71 -100 -38 -17 21 2 43 43 48 18 2 38 5 45 5 6 1 12
-6 12 -15z"/>
<path d="M2410 890 c0 -82 3 -100 15 -100 12 0 15 13 15 59 0 80 13 111 45
111 16 0 25 6 25 15 0 20 -34 19 -54 -1 -15 -14 -16 -14 -16 0 0 9 -7 16 -15
16 -12 0 -15 -18 -15 -100z"/>
</g>
</svg>
